<svg width="60" height="60" viewBox="0 0 60 60" fill="none" xmlns="http://www.w3.org/2000/svg">
<circle cx="30" cy="30" r="29" fill="#EFEFEF"/>
<path d="M46.5065 11L43.4539 45.196L29.7327 49L16.0493 45.2014L13 11H46.5065Z" fill="#E44D26"/>
<path d="M29.7534 46.0928L40.8408 43.019L43.4494 13.7969H29.7534V46.0928Z" fill="#F16529"/>
<path d="M23.8191 22.1862H29.7531V17.9915H19.2349L19.3353 19.1168L20.3662 30.6762H29.7531V26.4816H24.2024L23.8191 22.1862Z" fill="#EBEBEB"/>
<path d="M24.765 32.7737H20.5542L21.1419 39.3599L29.7343 41.7452L29.7536 41.7399V37.3757L29.7352 37.3806L25.0636 36.1191L24.765 32.7737Z" fill="#EBEBEB"/>
<path d="M29.739 30.6761H34.9043L34.4174 36.1162L29.739 37.3789V41.743L38.3383 39.3597L38.4014 38.651L39.3871 27.6078L39.4894 26.4814H29.739V30.6761Z" fill="white"/>
<path d="M29.739 22.1759V22.1862H39.8711L39.9553 21.2433L40.1464 19.1168L40.2467 17.9915H29.739V22.1759Z" fill="white"/>
</svg>
